<?xml version="1.0" standalone="no"?>
<!DOCTYPE svg PUBLIC "-//W3C//DTD SVG 20010904//EN"
 "http://www.w3.org/TR/2001/REC-SVG-20010904/DTD/svg10.dtd">
<svg version="1.0" xmlns="http://www.w3.org/2000/svg"
 width="250.000000pt" height="250.000000pt" viewBox="0 0 250.000000 250.000000"
 preserveAspectRatio="xMidYMid meet">
<metadata>
Created by potrace 1.10, written by Peter Selinger 2001-2011
</metadata>
<g transform="translate(0.000000,250.000000) scale(0.100000,-0.100000)"
fill="#000000" stroke="none">
<path d="M1053 2094 c-56 -20 -127 -85 -147 -135 -14 -35 -15 -55 -5 -151 8
-85 8 -116 -1 -134 -7 -12 -10 -28 -7 -36 4 -9 6 -7 6 5 2 32 21 7 21 -26 0
-42 19 -100 55 -167 18 -35 28 -67 26 -87 -1 -18 2 -33 7 -33 4 0 7 15 5 33
l-4 32 18 -21 c26 -31 95 -62 157 -69 45 -6 62 -3 110 20 31 14 63 34 72 42
13 14 17 14 25 2 5 -8 7 -20 4 -28 -3 -7 1 -19 10 -25 19 -14 23 -136 5 -136
-4 0 -6 -11 -5 -25 2 -14 -1 -27 -6 -31 -5 -3 -9 -14 -9 -24 0 -11 -18 -32
-45 -50 -28 -20 -45 -38 -43 -48 2 -10 -3 -16 -11 -14 -8 2 -11 -3 -8 -12 3
-8 -2 -25 -12 -38 -10 -13 -21 -32 -23 -43 -2 -11 -9 -19 -16 -18 -6 2 -9 -4
-6 -12 4 -8 3 -15 0 -15 -4 0 -11 12 -16 26 -6 14 -14 22 -20 19 -5 -3 -10 -1
-10 5 0 6 -18 30 -41 52 -25 25 -38 46 -35 55 4 10 2 13 -8 10 -10 -4 -13 -1
-9 9 4 10 0 12 -11 8 -18 -7 -57 32 -81 83 -24 51 -25 65 -3 89 10 12 21 41
24 65 3 31 2 40 -6 29 -5 -8 -7 -23 -4 -34 4 -12 2 -16 -5 -12 -6 4 -20 -11
-33 -38 -21 -45 -21 -45 -2 -88 11 -25 58 -83 114 -139 67 -67 105 -115 127
-160 32 -63 32 -64 33 -28 0 71 35 137 123 234 49 55 103 186 88 213 -5 8 -6
23 -4 33 3 11 -3 22 -16 28 -30 17 -29 92 4 163 31 67 48 153 36 177 -6 10 -5
24 1 35 16 29 27 1 22 -58 -3 -43 -2 -47 7 -26 15 35 5 98 -20 124 -13 14 -21
36 -21 57 0 34 -45 179 -65 209 -19 29 -95 82 -145 101 -59 22 -138 23 -197 3z
m157 -25 c8 -1 20 -6 27 -11 7 -5 17 -7 23 -3 5 3 10 -1 10 -10 0 -9 5 -13 10
-10 6 4 28 -11 50 -33 22 -21 41 -37 43 -35 4 3 3 -22 -2 -50 0 -5 -8 -1 -17
7 -8 9 -36 28 -61 43 -49 28 -125 35 -147 13 -8 -9 -4 -11 21 -5 39 8 113 -13
113 -32 0 -8 4 -12 8 -9 4 2 32 -17 61 -44 49 -45 54 -53 81 -152 19 -68 28
-119 25 -147 -5 -48 -21 -75 -42 -67 -7 3 -13 1 -13 -4 0 -6 7 -10 17 -10 15
0 15 -1 0 -18 -10 -10 -17 -26 -17 -34 0 -21 -30 -47 -30 -27 -1 9 -6 7 -17
-6 -14 -18 -15 -19 -9 -1 3 10 4 28 0 38 -6 19 -6 19 -20 -1 -8 -11 -13 -26
-12 -33 2 -8 -4 -12 -14 -10 -11 2 -18 -3 -18 -12 0 -9 -9 -21 -19 -28 -11 -7
-17 -18 -13 -27 5 -14 4 -14 -12 -2 -25 21 -66 23 -66 4 0 -11 -9 -7 -29 15
-16 16 -32 28 -34 26 -3 -3 -7 7 -11 21 -4 14 -10 25 -15 25 -14 0 -20 -39 -7
-43 8 -3 7 -9 -3 -18 -9 -9 -11 -9 -7 -1 4 7 1 12 -7 12 -21 0 -48 45 -35 58
6 6 6 12 -3 17 -8 5 -10 4 -5 -3 4 -7 3 -12 -3 -12 -6 0 -18 15 -27 33 -14 26
-14 30 -2 20 12 -10 15 -10 15 2 0 8 -3 12 -7 10 -4 -2 -15 1 -25 8 -21 16
-31 115 -20 213 6 56 12 72 36 97 17 16 28 32 25 34 -7 8 65 73 80 73 17 0 17
-2 3 -34 -7 -14 -19 -27 -28 -29 -13 -4 -13 -5 2 -6 10 0 25 12 35 29 10 17
28 32 45 36 15 3 27 10 27 16 0 6 -9 8 -20 5 -11 -3 -20 -1 -20 4 0 5 -12 6
-27 3 -31 -7 -103 -45 -103 -53 0 -14 -51 -64 -58 -57 -4 4 -7 30 -6 57 0 40
6 55 30 80 16 17 39 35 52 40 13 5 21 13 18 17 -2 4 6 9 18 10 13 1 34 6 47
12 13 5 40 7 59 5 19 -3 42 -6 50 -6z"/>
<path d="M1315 1830 c-4 -6 -22 -10 -41 -10 -19 0 -34 -4 -34 -9 0 -5 -10 -12
-22 -16 l-23 -7 22 -6 c16 -5 20 -11 14 -20 -4 -8 -12 -13 -17 -13 -9 0 -9
-37 1 -75 3 -12 12 -21 21 -20 9 0 19 -5 21 -11 3 -8 -4 -13 -17 -13 -11 0
-33 -8 -47 -17 -15 -10 -24 -13 -20 -6 9 14 -27 28 -44 17 -9 -5 -10 0 -6 16
5 21 3 20 -23 -9 -34 -36 -40 -53 -11 -27 16 14 23 15 41 6 18 -10 21 -9 15 1
-5 8 -4 10 3 5 7 -4 12 -11 12 -15 0 -10 -46 -31 -70 -31 -10 0 -21 -9 -25
-20 -7 -23 2 -43 16 -35 5 4 21 -3 35 -14 28 -22 49 -28 39 -11 -4 6 14 10 47
10 l53 0 -25 -19 c-13 -11 -28 -17 -32 -15 -4 3 -8 0 -8 -5 0 -14 17 -14 25
-1 3 5 13 6 22 3 10 -4 14 -2 9 5 -3 6 3 13 14 17 11 4 28 18 37 31 12 19 19
22 29 13 11 -9 14 -7 14 9 0 26 -13 35 -74 47 -47 9 -80 39 -40 35 49 -5 59
13 24 45 -11 10 -17 21 -15 26 3 4 0 11 -6 14 -7 5 0 14 17 26 21 14 30 15 36
6 6 -9 12 -9 27 0 17 11 22 10 29 -3 7 -12 14 -14 27 -7 15 9 13 12 -15 22
-45 15 -71 14 -98 -5 -25 -17 -30 -4 -7 19 8 8 11 18 7 21 -3 4 2 4 13 0 11
-4 17 -3 12 1 -4 5 7 15 24 22 32 13 69 4 69 -19 0 -6 2 -9 5 -6 3 3 3 12 0
20 -8 20 -52 40 -60 28z m-70 -260 c16 0 35 -4 42 -8 6 -4 -26 -7 -70 -7 -46
-1 -92 -6 -104 -13 -14 -8 -23 -9 -23 -3 0 16 42 35 73 33 16 -1 27 3 27 10 0
9 3 9 12 0 7 -7 26 -12 43 -12z m37 -36 c16 -10 -44 -23 -115 -23 -35 -1 -47
3 -45 12 8 21 129 30 160 11z"/>
<path d="M989 1778 c-11 -21 -11 -22 4 -10 11 9 36 13 74 11 32 -2 60 1 63 6
3 6 -22 11 -62 13 -61 3 -67 2 -79 -20z"/>
<path d="M1100 1749 c11 -8 8 -9 -13 -4 -19 4 -26 2 -22 -5 8 -13 -1 -13 -25
0 -15 8 -22 5 -34 -12 -15 -21 -15 -23 1 -29 24 -9 34 -2 26 17 -5 14 -3 14
16 2 18 -11 23 -11 30 1 5 8 16 11 26 8 9 -4 14 -3 10 3 -3 6 2 10 12 10 15 0
16 2 3 10 -8 5 -22 10 -30 10 -13 0 -13 -1 0 -11z"/>
<path d="M1260 1710 c8 -5 31 -9 50 -9 l35 1 -30 8 c-16 4 -39 8 -50 9 -16 1
-17 -1 -5 -9z"/>
<path d="M1380 1509 c0 -5 -4 -8 -9 -4 -12 7 -24 -12 -16 -25 9 -15 31 -1 32
20 1 11 0 20 -3 20 -2 0 -4 -5 -4 -11z"/>
<path d="M1540 1218 c0 -12 174 -81 238 -95 12 -3 22 -1 22 6 0 9 -16 14 -32
10 -2 0 -29 11 -61 25 -32 15 -68 26 -81 26 -14 0 -26 4 -28 9 -3 10 -58 27
-58 19z"/>
<path d="M865 1199 c-32 -31 -62 -54 -70 -54 -10 0 -202 -94 -220 -108 -5 -4
-22 -16 -37 -27 -30 -23 -96 -146 -100 -188 -2 -15 -7 -30 -13 -34 -5 -4 -10
-27 -11 -51 -1 -24 -4 -53 -8 -64 -3 -11 -8 -72 -11 -136 -2 -64 -8 -152 -14
-194 -15 -121 -23 -343 -11 -343 6 0 10 17 11 38 1 54 5 102 18 232 7 63 16
189 20 280 8 154 33 299 53 308 5 2 8 15 8 28 0 13 8 32 18 42 10 10 21 26 25
35 8 20 99 87 109 81 5 -3 8 0 8 5 0 6 9 11 19 11 11 0 21 3 23 8 2 4 28 18
58 32 65 29 160 89 160 101 0 12 -22 10 -35 -2z"/>
<path d="M1442 1097 c-5 -12 -17 -41 -27 -63 -11 -28 -29 -48 -55 -63 -20 -11
-44 -28 -51 -38 -9 -11 -10 -14 -1 -9 7 4 12 2 12 -6 1 -8 7 -5 16 7 8 11 19
19 24 18 12 -4 70 68 70 87 1 17 23 50 34 50 4 0 4 -9 1 -20 -4 -14 -2 -20 8
-20 19 0 26 20 17 46 -12 31 -36 36 -48 11z"/>
<path d="M1810 1112 c0 -4 16 -14 35 -21 35 -12 84 -55 112 -98 15 -22 33 -31
33 -15 0 13 -75 89 -114 116 -38 26 -66 33 -66 18z"/>
<path d="M894 1039 c-10 -12 -32 -28 -47 -36 -45 -23 -25 -26 37 -7 40 13 55
22 51 32 -3 7 -5 18 -5 23 0 15 -16 10 -36 -12z"/>
<path d="M1020 945 c28 -29 32 -31 23 -9 -5 14 -1 16 20 12 15 -3 27 -2 27 2
0 13 -49 18 -54 6 -3 -7 -5 -7 -5 2 -1 6 -9 12 -18 12 -14 0 -12 -4 7 -25z"/>
<path d="M1861 834 c-1 -114 -11 -201 -37 -331 -7 -34 9 -47 20 -17 3 9 2 12
-5 9 -11 -7 -4 31 14 75 11 26 22 328 14 370 -2 14 -5 -34 -6 -106z"/>
<path d="M1931 833 c-1 -50 -24 -162 -45 -222 -18 -50 -20 -59 -7 -46 8 10 39
110 58 192 6 23 7 59 3 80 l-8 38 -1 -42z"/>
<path d="M2035 790 c3 -25 5 -64 5 -87 -1 -38 13 -63 27 -49 6 6 -16 131 -28
161 -6 13 -7 5 -4 -25z"/>
<path d="M648 656 c-3 -15 0 -27 8 -30 8 -3 14 -14 14 -25 0 -11 5 -21 11 -23
5 -2 11 -12 13 -23 2 -11 10 -21 19 -23 23 -5 21 10 -3 37 -10 13 -24 39 -31
60 -15 49 -25 57 -31 27z"/>
<path d="M1960 643 c0 -16 -54 -194 -75 -248 -6 -14 -5 -17 3 -10 24 23 96
275 78 275 -3 0 -6 -8 -6 -17z"/>
<path d="M2067 597 c-4 -28 -3 -57 3 -67 6 -10 11 -67 11 -127 1 -94 3 -102
11 -63 6 30 4 88 -5 175 -12 116 -14 125 -20 82z"/>
<path d="M1246 621 c-8 -12 3 -41 15 -41 13 0 11 14 -3 28 -9 9 -9 12 0 12 6
0 16 -8 21 -17 6 -10 11 -13 11 -7 0 11 -20 34 -31 34 -4 0 -10 -4 -13 -9z"/>
<path d="M709 508 c-14 -10 -14 -13 3 -30 23 -23 23 -23 23 12 0 33 -2 34 -26
18z"/>
<path d="M715 430 c4 -6 1 -17 -5 -25 -9 -11 -9 -15 -1 -15 6 0 11 -10 12 -22
0 -13 7 -39 15 -58 l14 -35 -5 35 c-3 19 -8 56 -11 83 -4 26 -11 47 -16 47 -5
0 -6 -5 -3 -10z"/>
<path d="M1323 375 c0 -33 2 -45 4 -27 2 18 2 45 0 60 -2 15 -4 0 -4 -33z"/>
<path d="M1778 270 c-9 -41 -21 -94 -27 -118 -9 -35 -9 -47 4 -65 8 -12 15
-36 15 -55 0 -18 4 -31 9 -27 12 7 4 79 -9 83 -13 5 -13 79 0 84 5 2 12 21 16
43 3 22 9 42 13 45 3 3 4 23 1 45 -5 39 -5 38 -22 -35z"/>
<path d="M741 210 c-2 -30 -2 -67 -1 -82 1 -15 -4 -43 -11 -61 -8 -24 -9 -39
-1 -52 8 -15 11 -3 17 56 3 41 5 101 3 134 l-4 60 -3 -55z"/>
<path d="M2100 186 c0 -25 5 -48 10 -51 6 -4 10 13 10 44 0 28 -4 51 -10 51
-5 0 -10 -20 -10 -44z"/>
<path d="M2124 55 c3 -63 16 -69 16 -7 0 29 -4 52 -9 52 -5 0 -8 -20 -7 -45z"/>
</g>
</svg>
